<svg width="36" height="36" viewBox="0 0 36 36" fill="none" xmlns="http://www.w3.org/2000/svg">
<path id="Search" fill-rule="evenodd" clip-rule="evenodd" d="M28.5281 14.2781C28.5281 17.1 27.7031 19.725 26.2969 21.9375L25.8281 22.6031L36 32.7844L32.8406 36L22.6594 25.8188L22.0125 26.2687C19.7812 27.7125 17.1187 28.5562 14.2594 28.5562C6.38437 28.5562 0 22.1625 0 14.2781C0 6.39375 6.38438 0 14.2688 0C22.1437 0 28.5281 6.39375 28.5281 14.2781ZM25.5562 14.2688C25.5562 11.2594 24.3844 8.42813 22.2562 6.3C20.1281 4.17188 17.2969 3 14.2875 3C11.2781 3 8.44687 4.17188 6.31875 6.3C4.19063 8.42813 3.01875 11.2594 3.01875 14.2688C3.01875 17.2781 4.19063 20.1094 6.31875 22.2375C8.44687 24.3656 11.2781 25.5375 14.2875 25.5375C17.2969 25.5375 20.1281 24.3656 22.2562 22.2375C24.3844 20.1094 25.5562 17.2781 25.5562 14.2688Z" fill="white"/>
</svg>
