<svg width="27" height="18" viewBox="0 0 27 18" fill="none" xmlns="http://www.w3.org/2000/svg">
<path id="wikipedia" d="M27 0.30259C26.9999 0.403797 26.9682 0.50216 26.9098 0.582547C26.866 0.655322 26.7919 0.701757 26.7103 0.707536C26.1776 0.74188 25.6689 0.952745 25.257 1.30995C24.7445 1.86896 24.3475 2.53366 24.091 3.26215L17.9644 17.795C17.9241 17.93 17.8124 17.9975 17.6272 17.9975C17.4879 18.0006 17.3583 17.9228 17.29 17.795L13.8538 10.2311L9.90239 17.795C9.83406 17.9228 9.70446 18.0006 9.56518 17.9975C9.41965 18.0156 9.27932 17.9342 9.21611 17.795L3.19632 3.26215C2.9417 2.54507 2.53477 1.89871 2.00662 1.37242C1.49964 0.978388 0.895047 0.747443 0.265987 0.707527C0.193129 0.703526 0.126292 0.663719 0.085513 0.600039C0.0294143 0.5322 -0.00101402 0.445008 2.57957e-05 0.355075C2.57957e-05 0.117614 0.0641412 0.000126611 0.192372 0.000126611C0.729046 0.000126611 1.29026 0.0251337 1.87601 0.0751477C2.41981 0.127636 2.93195 0.153466 3.41242 0.152637C3.9016 0.152637 4.47864 0.126807 5.14355 0.0751477C5.83933 0.0251337 6.45595 0.000126611 6.99341 0.000126611C7.12164 0.000126611 7.18576 0.117594 7.18576 0.355075C7.18576 0.59001 7.14539 0.707477 7.06703 0.707477C6.61415 0.721316 6.17435 0.870455 5.79896 1.13749C5.50217 1.35725 5.32861 1.71796 5.3359 2.09985C5.3506 2.36342 5.41604 2.6211 5.52825 2.85724L10.5032 14.683L13.3267 9.06881L10.6955 3.26215C10.4086 2.53399 10.0152 1.85758 9.52957 1.25745C9.13734 0.921937 8.6525 0.729024 8.14751 0.707536C8.08035 0.701257 8.02021 0.661223 7.98603 0.600049C7.93399 0.530275 7.90632 0.443785 7.90766 0.355085C7.90766 0.117624 7.96229 0.000136482 8.07627 0.000136482C8.56952 -0.00209109 9.06255 0.0229504 9.55331 0.0751576C10.0122 0.128751 10.4737 0.154624 10.9354 0.152647C11.4151 0.152647 11.9232 0.126817 12.4599 0.0751576C13.0132 0.0251435 13.5578 0.000136482 14.0937 0.000136482C14.2219 0.000136482 14.286 0.117604 14.286 0.355085C14.286 0.59002 14.248 0.707487 14.1673 0.707487C13.094 0.784976 12.5573 1.10576 12.5573 1.66984C12.6044 2.08405 12.7313 2.4838 12.9301 2.84467L14.6707 6.56414L16.4018 3.16214C16.6109 2.79256 16.7346 2.37643 16.7628 1.94732C16.7628 1.17243 16.2261 0.759156 15.1528 0.707497C15.0554 0.707497 15.0079 0.59003 15.0079 0.355095C15.0081 0.269369 15.033 0.185717 15.0792 0.115126C15.1291 0.0376372 15.1765 0.000146353 15.224 0.000146353C15.6087 0.000146353 16.0813 0.0251534 16.6417 0.0751675C17.1784 0.127653 17.6201 0.152656 17.9644 0.152656C18.2114 0.152656 18.5771 0.13016 19.0568 0.0876644C19.6647 0.0301745 20.1752 0.000175967 20.5837 0.000175967C20.6787 0.000175967 20.7261 0.100161 20.7261 0.30263C20.7261 0.572594 20.6383 0.707576 20.4626 0.707576C19.9226 0.743844 19.4019 0.932024 18.9546 1.25247C18.3687 1.82613 17.8868 2.5071 17.5322 3.26216L15.224 7.75402L18.3491 14.4556L22.9631 3.16217C23.1116 2.80277 23.193 2.41664 23.2029 2.02484C23.2029 1.19747 22.6662 0.758367 21.5929 0.707536C21.4955 0.707536 21.448 0.590069 21.448 0.355135C21.448 0.117673 21.5193 0.000185838 21.6641 0.000185838C22.0559 0.000185838 22.5206 0.0251929 23.058 0.075207C23.5543 0.127692 23.9723 0.152696 24.3072 0.152696C24.7166 0.149698 25.1256 0.123832 25.5325 0.075207C26.0145 0.0252093 26.4467 0.000185838 26.8314 0.000185838C26.943 0.000136482 27 0.100122 27 0.30259Z" fill="white"/>
</svg>
